<svg xmlns="http://www.w3.org/2000/svg" viewBox="0 0 416 416" enable-background="new 0 0 416 416"><style type="text/css">.st0{fill:#F6B221;} .st1{fill:#446CA9;}</style><path class="st0" d="M224.2 36.9l-13.6 77.1-2.6-.1s-1.8 0-2.6.1l-13.6-77.1c5.3-.6 10.7-1 16.2-1s10.9.4 16.2 1zM190.9 116.6c-1.7.5-3.3 1.1-4.9 1.8l-39.2-67.8c9.6-4.9 19.8-8.6 30.5-11.1l13.6 77.1zM173.3 125.7c-1.4 1.1-2.7 2.2-4 3.4l-60-50.3c7.4-7.9 15.7-14.9 24.8-20.9l39.2 67.8zM152.2 158.6c-.4 1.7-.7 3.4-.9 5.2h-78.3c.6-11.1 2.5-21.8 5.6-31.9l73.6 26.7zM159.8 140.3c-.9 1.5-1.8 3-2.6 4.5l-73.6-26.8c4.3-10 9.8-19.5 16.2-28.1l60 50.4zM269.2 50.5l-39.2 67.8c-1.6-.7-3.3-1.3-4.9-1.8l13.6-77.1c10.7 2.5 20.9 6.3 30.5 11.1zM306.7 78.7l-60 50.3c-1.3-1.2-2.6-2.3-4-3.4l39.2-67.8c9.1 6 17.4 13 24.8 20.9zM332.4 118.1l-73.6 26.8c-.8-1.6-1.7-3.1-2.6-4.5l60-50.3c6.4 8.5 11.9 17.9 16.2 28zM343 163.8h-78.3c-.2-1.7-.5-3.5-.9-5.2l73.6-26.8c3.1 10.2 5 20.9 5.6 32z"/><path class="st1" d="M95.7 219.2c-3.3 2.1-7.2 3.3-11.3 3.3-11.8 0-21.3-9.4-21.3-21.2 0-11.7 9.4-21.2 21.3-21.2 4.1 0 8 1.2 11.3 3.2l-5.3 9.6c-1.8-1.2-3.8-1.9-6-1.9-5.8 0-10.4 4.6-10.4 10.3 0 5.8 4.6 10.3 10.4 10.3 2.2 0 4.2-.7 6-1.9l5.3 9.5zM135.3 201.3c0 11.8-9.6 21.4-21.5 21.4-11.8 0-21.4-9.6-21.4-21.4 0-11.9 9.6-21.5 21.4-21.5 12 0 21.5 9.6 21.5 21.5zm-10.9 0c0-5.8-4.6-10.5-10.6-10.5-5.7 0-10.4 4.7-10.4 10.5 0 5.7 4.7 10.4 10.4 10.4 6 0 10.6-4.7 10.6-10.4zM167.8 222.2l.7-23.1-5.7 9.5c-2.7 3.9-6.5 3.9-9.1-.1l-5.6-8.6.7 22.4h-11.1v-34c0-10 10-10 12.9-5l7.6 13.4 8.2-13.4c3-5.1 12.4-5 12.4 5v34h-11zM181.7 222.2v-27.5c0-7.9 6.7-14.4 14.6-14.4h3.8c8.1 0 14.6 6.6 14.6 14.6v2.5c0 8.1-6.6 14.5-14.6 14.5h-7.7v10.4h-10.7zm22.3-27.3c0-2.2-1.7-3.9-3.8-3.9h-4c-2.1 0-3.8 1.7-3.8 3.9v7.3h7.8c2.1 0 3.8-2.3 3.8-4.4v-2.9zM216.9 207.9v-27.6h10.6v27.6c0 1.9 1.5 3.4 3.3 3.6h6.7c1.8-.1 3.3-1.6 3.3-3.6v-27.6h10.6v27.6c0 8.1-6.3 14.3-14.4 14.3h-5.8c-8 0-14.3-6.2-14.3-14.3zM264 222.2v-31.3h-10.3v-10.4h31.1v10.4h-10.3v31.3h-10.5zM315 222.2h-14.8c-7.9 0-14.5-6.6-14.5-14.5v-12.7c0-8 6.6-14.6 14.5-14.6h14.8v10.5h-14.8c-2.1 0-3.8 1.8-3.8 3.9v1.7h18.6v9.9h-18.6v1.4c0 2.1 1.7 4.1 3.8 4.1h14.8v10.3zM341.4 222.2c0-5.7-4.6-11.3-10.4-11.3h-2.3v11.3h-10.9v-27.5c0-7.9 6.8-14.5 14.7-14.5h5.1c8 0 14.6 6.6 14.6 14.7v2.5c0 4.2-3.1 9.7-7.2 10.9 5.1 2.7 7.2 8.7 7.2 13.9h-10.8zm-3.8-31.3h-5.1c-2.1 0-3.9 1.8-3.9 3.9 0 2.1.1 5.2.1 7.4h8.9c2.1 0 3.8-1.8 3.8-3.9v-3.5c.1-2.1-1.6-3.9-3.8-3.9zM119.1 337.5c0-14.3-11.6-28.3-26-28.3h-5.8v28.3h-27.3v-69.1c0-19.9 17-36.4 36.9-36.4h12.8c20.2 0 36.8 16.6 36.8 36.9v6.2c0 10.6-7.7 24.4-18 27.5 12.7 6.7 18 21.9 18 35h-27.4zm-9.4-78.5h-12.8c-5.4 0-9.7 4.4-9.7 9.7 0 5.4.1 13.1.1 18.6h22.4c5.4 0 9.6-4.5 9.6-9.7v-8.8c0-5.4-4.3-9.8-9.6-9.8zM155.4 337.5v-105.2h27.6v105.2h-27.6zM246.6 264c-1.1-3.2-4.2-5.8-7.7-5.9h-14.5c-8.2 0-8.2 13.8 0 13.8h13.3c23.5 0 35.7 16.3 36 32.8.1 16.6-12 33.4-35.6 33.4h-10.5c-16.3 0-32.1-11-35.2-27.2l26.2-4.9c1.1 3.2 4.2 5.7 7.7 6h14.5c8.2 0 8-13.9 0-13.9h-13.3c-48.7 0-47.4-66.2-4-66.2h14.2c16.3 0 32.1 11 34.9 27.2l-26 4.9zM353.1 337.6h-37.1c-19.9 0-36.4-16.6-36.4-36.4v-32.1c0-20.1 16.5-36.6 36.4-36.6h37.1v26.3h-37.1c-5.2 0-9.6 4.6-9.6 9.8v4.2h46.7v24.9h-46.7v3.5c0 5.2 4.4 10.2 9.6 10.2h37.1v26.2z"/></svg>